<?xml version="1.0" encoding="utf-8"?>
<!-- Generator: Adobe Illustrator 19.0.0, SVG Export Plug-In . SVG Version: 6.00 Build 0)  -->
<svg version="1.1" id="_x34_57bf273-24a3-4fd8-a857-e9b918267d6a"
	 xmlns="http://www.w3.org/2000/svg" xmlns:xlink="http://www.w3.org/1999/xlink" x="0px" y="0px" viewBox="-71 -51.7 698 698"
	 style="enable-background:new -71 -51.7 698 698;" xml:space="preserve">
<style type="text/css">
	.st0{opacity:0.5;}
	.st1{fill:url(#SVGID_1_);}
	.st2{fill:#F5F5F5;}
	.st3{fill:#7A4629;}
	.st4{fill:#4285F4;}
	.st5{opacity:0.1;enable-background:new    ;}
	.st6{fill:#FDB797;}
</style>
<title>profile pic</title>
<g class="st0">
	
		<linearGradient id="SVGID_1_" gradientUnits="userSpaceOnUse" x1="278" y1="-52.44" x2="278" y2="645.5601" gradientTransform="matrix(1 0 0 -1 0 593.84)">
		<stop  offset="0" style="stop-color:#808080;stop-opacity:0.25"/>
		<stop  offset="0.54" style="stop-color:#808080;stop-opacity:0.12"/>
		<stop  offset="1" style="stop-color:#808080;stop-opacity:0.1"/>
	</linearGradient>
	<circle class="st1" cx="278" cy="297.3" r="349"/>
</g>
<circle class="st2" cx="278.7" cy="295.1" r="341.6"/>
<path class="st3" d="M275.4,123c96.7,0,175,73.8,175,164.9s-19.3,270.8-175,270.8s-175-179.7-175-270.8S178.7,123,275.4,123z"/>
<path class="st4" d="M279,638c66.8,0.1,132.1-19.4,187.8-56.2c-12.6-68.8-60.5-72.7-60.5-72.7H142.1c0,0-45.2,3.7-59.3,67
	C140.2,616.5,208.8,638.2,279,638z"/>
<circle class="st3" cx="275.4" cy="287.9" r="164.9"/>
<path class="st5" d="M222.1,425.2h105.7l0,0v84.5c0,29.2-23.6,52.8-52.8,52.8l0,0c-29.2,0-52.8-23.7-52.8-52.8c0,0,0,0,0,0
	L222.1,425.2L222.1,425.2L222.1,425.2z"/>
<path class="st6" d="M225.5,421.3h99c1.9,0,3.4,1.5,3.4,3.4l0,0v81.2c0,29.2-23.6,52.8-52.8,52.8c0,0,0,0,0,0l0,0
	c-29.2,0-52.8-23.7-52.8-52.8c0,0,0,0,0,0v-81.2C222.2,422.8,223.7,421.3,225.5,421.3z"/>
<path class="st5" d="M222.3,465.1c34.1,12.7,71.5,12.8,105.7,0.3v-13H222.3V465.1z"/>
<circle class="st6" cx="275.4" cy="320.7" r="151.5"/>
<path class="st5" d="M167.5,183c0,0,63.8,129.6,243.9,54.3l-41.9-65.7l-74.3-26.7L167.5,183z"/>
<path class="st3" d="M167.5,181.1c0,0,63.8,129.6,243.9,54.3l-41.9-65.7L295.1,143L167.5,181.1z"/>
<ellipse class="st6" cx="123.9" cy="320.6" rx="14.1" ry="26.4"/>
<ellipse class="st6" cx="426.8" cy="320.6" rx="14.1" ry="26.4"/>
</svg>
