<?xml version="1.0" encoding="utf-8"?>
<!-- Generator: Adobe Illustrator 19.0.0, SVG Export Plug-In . SVG Version: 6.00 Build 0)  -->
<svg version="1.1" id="Ebene_2" xmlns="http://www.w3.org/2000/svg" xmlns:xlink="http://www.w3.org/1999/xlink" x="0px" y="0px"
	 viewBox="46.9 19.5 194.3 205.2" style="enable-background:new 46.9 19.5 194.3 205.2;" xml:space="preserve">
<style type="text/css">
	.st0{fill:#3E4751;}
</style>
<path id="XMLID_2_" class="st0" d="M103.4,21.7c-36.4,0-56.6,32-56.6,68.4c0,36.1,18.3,67.7,53.5,69.5l0,0l0.7,0c0,0,0.4,0,1-0.1
	c0.6-0.1,0.9-0.3,0.9-0.3l0.7-0.7l-0.8-0.6l2.1-2.1c-0.5,0-0.9,0.1-1.4,0.1c-31.2,0-32.2-34.6-32.2-65.8c0-30.4,1.8-64.6,32.2-64.6
	s32.2,34.2,32.2,64.6c0,12.7-0.3,26.3-2.9,37.8l26.7-26.7c0.4-3.6,0.6-7.3,0.6-11.1C160,53.7,139.8,21.7,103.4,21.7z"/>
<path id="XMLID_27_" class="st0" d="M191,90.6l-16.7,16.7l15.7,51.1h-36l16.1-46.9l-6.1,6.1l-22.4,64.8c-5,14.6-10.4,24.4-25.8,24.4
	v3.2H175v-3.2h-3.4c-13.6,0-27.4-0.2-27.4-13.8c0-3.6,0.6-8.2,2.2-12.6l6.4-18.8H191l13.8,45.2H190v3.2h51.2v-3.2H227L191,90.6z"/>
<rect id="XMLID_8_" x="170.3" y="-8.4" transform="matrix(0.7071 0.7071 -0.7071 0.7071 113.3312 -94.9505)" class="st0" width="2" height="195.5"/>
<polygon id="XMLID_7_" class="st0" points="58.4,224.7 56.9,223.2 190.7,89.5 191.4,91.7 "/>
</svg>
